<?xml version="1.0" encoding="UTF-8"?>
<svg width="201px" height="31px" viewBox="0 0 201 31" version="1.1" xmlns="http://www.w3.org/2000/svg" xmlns:xlink="http://www.w3.org/1999/xlink">
    <title>59F548F0-15F5-41A5-B92E-C1F126C98923</title>
    <g id="Page-1" stroke="none" stroke-width="1" fill="none" fill-rule="evenodd">
        <g id="HTS-Footer-header" transform="translate(-189.000000, -27.000000)">
            <g id="HTS_Group-Logo" transform="translate(189.000036, 27.356393)">
                <path d="M112.502278,4.97414598 C115.181818,4.97414598 116.474198,5.20219195 117.120209,5.31621494 L117.120209,6.96954828 L109.936761,6.96954828 C107.542278,6.96954828 106.820014,7.68219195 106.45906,8.03851379 C105.432853,9.05121797 105.378842,10.6737833 105.375999,11.5849589 L105.375841,18.5713874 C105.375841,21.1939161 106.098106,21.9065598 106.45906,22.2628816 C107.485267,23.2755858 108.971987,23.328886 109.804294,23.3316913 L116.265037,23.3318471 L116.265037,16.1483989 L110.791933,16.1483989 L110.791933,14.1529966 L118.431474,14.1529966 L118.431474,24.8711575 C116.069569,25.3055308 113.681808,25.3262152 112.376288,25.3272002 L109.794232,25.3272494 C106.430554,25.3272494 105.356956,24.2629161 104.819979,23.7309276 C103.338251,22.2623115 103.219712,20.1341163 103.210229,18.8782182 L103.209405,11.730008 C103.209405,8.38274228 104.156813,7.24064506 104.716792,6.67349683 L104.819979,6.57046782 L104.819979,6.57046782 C106.301708,5.10185172 108.318459,4.98436244 109.504556,4.97496329 L112.502278,4.97414598 Z M152.667054,4.97400345 C156.030376,4.97400345 157.10433,6.03833678 157.641307,6.57032529 C159.187117,8.10279425 159.248949,10.3534439 159.251422,11.5817746 L159.251525,18.5716011 C159.251525,22.1344632 158.178284,23.1987966 157.641307,23.7311414 C156.094813,25.2632683 153.966419,25.3245534 152.806843,25.3270048 L149.132341,25.3271069 C145.768663,25.3271069 144.694709,24.2631299 144.158089,23.7311414 C142.67636,22.2621975 142.557821,20.1342777 142.548338,18.8784257 L142.547514,11.7298655 C142.547514,8.38259976 143.494922,7.24081698 144.054902,6.67341147 L144.158089,6.57032529 L144.158089,6.57032529 C145.639817,5.1017092 147.656266,4.98421991 148.842593,4.97482077 L152.667054,4.97400345 Z M166.093261,5.14514483 L166.093261,18.5713517 C166.093261,21.1938805 166.815169,21.9065241 167.176479,22.262846 C168.202686,23.2755502 169.689087,23.3288504 170.52136,23.3316556 L173.390732,23.3318115 C175.785215,23.3318115 176.507123,22.6191678 176.868433,22.262846 C177.89464,21.2501418 177.948651,19.6275765 177.951494,18.7164008 L177.951652,5.14514483 L180.118089,5.14514483 L180.118089,18.5713517 C180.118089,22.1345701 179.044134,23.1989034 178.507157,23.730892 C176.961348,25.2633609 174.832653,25.3246597 173.673051,25.3271116 L170.511652,25.3272138 C167.147974,25.3272138 166.07402,24.2628805 165.537399,23.730892 C163.991247,22.198423 163.929401,19.9477734 163.926927,18.7194426 L163.926824,5.14514483 L166.093261,5.14514483 Z M132.313772,5.14521609 C135.392393,5.14521609 136.351968,6.02889425 136.831933,6.47073333 C138.271474,7.79625057 138.271474,9.75352644 138.271474,10.7323425 L138.271474,12.1006184 C138.271474,14.4380897 137.663232,15.3121471 137.35929,15.749354 C136.447106,17.0606184 135.192853,17.3456759 134.565726,17.4882046 L138.8986,25.1562506 L136.561129,25.1562506 L132.370784,17.6877448 L125.614922,17.6877448 L125.614922,25.1562506 L123.448485,25.1562506 L123.448485,5.14521609 L132.313772,5.14521609 Z M194.171279,5.14514483 C197.2499,5.14514483 198.209475,6.02882299 198.68944,6.47066207 C200.069,7.74094943 200.126481,9.5917729 200.128876,10.6049805 L200.12898,12.9557195 C200.12898,15.8918115 199.169049,16.7754897 198.68944,17.2173287 C197.312489,18.4852148 195.374798,18.5403403 194.310817,18.542737 L187.472429,18.542846 L187.472429,25.1561793 L185.305992,25.1561793 L185.305992,5.14514483 L194.171279,5.14514483 Z M152.65699,6.9695616 L149.274514,6.96940575 C146.880387,6.96940575 146.158123,7.68204943 145.797169,8.03837126 C144.770962,9.05107544 144.716951,10.6736407 144.714109,11.5848164 L144.713951,18.5716011 C144.713951,21.1937736 145.436215,21.9064172 145.797169,22.2627391 C146.823376,23.2754433 148.310097,23.3287435 149.1421,23.3315487 L152.524525,23.3317046 C154.918652,23.3317046 155.641272,22.6190609 156.00187,22.2627391 C157.028077,21.2500349 157.082088,19.6277894 157.084931,18.7166474 L157.085089,11.7298655 C157.085089,9.10733678 156.36318,8.3946931 156.00187,8.03837126 C154.975663,7.02566709 153.489262,6.97236687 152.65699,6.9695616 Z M194.461017,7.14071829 L187.472429,7.14054713 L187.472429,16.5474437 L194.342314,16.5474437 C196.252199,16.5474437 196.822314,15.9869494 197.107371,15.7065241 C197.962544,14.8656046 197.962544,13.5924667 197.962544,12.9557195 L197.962544,10.7322713 C197.962544,8.82238621 197.392429,8.26189195 197.107371,7.98146667 C196.302503,7.19001298 195.12708,7.14345688 194.461017,7.14071829 Z M132.603566,7.14078955 L125.614922,7.14061839 L125.614922,15.6923425 L132.484807,15.6923425 C134.394692,15.6923425 134.964807,15.1318483 135.249864,14.851423 C136.054733,14.0599693 136.102078,12.8853353 136.104863,12.2193185 L136.105037,10.7323425 C136.105037,8.82245747 135.534922,8.2616069 135.249864,7.98153793 C134.444996,7.19008425 133.269889,7.14352815 132.603566,7.14078955 Z" id="Combined-Shape" fill="#002F6C"></path>
                <path d="M43.8458655,17.4119874 L50.1132103,17.4119874 L50.1132103,25.1562862 L56.1564287,25.1562862 L56.1564287,5.14525172 L50.1132103,5.14525172 L50.1132103,12.0810563 L43.8458655,12.0810563 L43.8458655,5.14525172 L37.8026471,5.14525172 L37.8026471,25.1562862 L43.8458655,25.1562862 L43.8458655,17.4119874 Z M63.6577161,9.99122874 L63.6577161,25.1562862 L69.643923,25.1562862 L69.643923,9.99122874 L75.0600149,9.99122874 L75.0600149,5.14525172 L58.2416241,5.14525172 L58.2416241,9.99122874 L63.6577161,9.99122874 Z M83.9345667,9.70617126 L92.9430954,9.70617126 L92.9430954,5.37294138 C91.2897621,5.03087241 89.2751184,4.85983793 86.899877,4.85983793 L82.6233023,4.85983793 C78.7276356,4.85983793 76.7796241,6.59904483 76.7796241,10.0763897 L76.7796241,11.5305391 C76.7796241,13.2027575 77.1405782,14.4619989 77.8628425,15.3075506 C78.5851069,16.1531023 79.7784287,16.7577805 81.4545667,17.0602977 C82.6400494,17.2744471 85.3445322,17.640746 86.5293023,17.8588149 C87.1963368,17.9813897 87.5270034,18.3622977 87.5270034,18.9705391 L87.5270034,19.5121483 C87.5270034,20.2344126 87.117946,20.5953667 86.3012563,20.5953667 L77.206854,20.5953667 L77.206854,24.9282402 C78.8601874,25.2699529 80.8744747,25.4417 83.2500724,25.4417 L87.7550494,25.4417 C91.6503598,25.4417 93.5987276,23.7024931 93.5987276,20.224792 L93.5987276,18.5144471 C93.5987276,16.8422287 93.2374172,15.5829874 92.5155092,14.7374356 C91.7928885,13.8918839 90.5992103,13.2868494 88.9237851,12.9843322 C87.7383023,12.7701828 85.0338195,12.4038839 83.8490494,12.1861713 C83.1816586,12.0635966 82.8513483,11.7015736 82.8513483,11.1314586 L82.8513483,10.7323782 C82.8513483,10.0482402 83.2123023,9.70617126 83.9345667,9.70617126 L83.9345667,9.70617126 Z" id="Fill-12" fill="#002F6C"></path>
                <path d="M15.1508046,6.06032184 C20.1631839,6.06032184 24.2412874,10.1384253 24.2412874,15.1508046 C24.2412874,20.1631839 20.1631839,24.240931 15.1508046,24.240931 C10.1384253,24.240931 6.06032184,20.1631839 6.06032184,15.1508046 C6.06032184,10.1384253 10.1384253,6.06032184 15.1508046,6.06032184 L15.1508046,6.06032184 Z M15.1508046,0 C6.78329885,0 0,6.78329885 0,15.1508046 C0,23.5183103 6.78329885,30.3012529 15.1508046,30.3012529 C23.5183103,30.3012529 30.3016092,23.5183103 30.3016092,15.1508046 C30.3016092,6.78329885 23.5183103,0 15.1508046,0 L15.1508046,0 Z M11.5145402,18.787069 L18.7867126,18.787069 L18.7867126,11.5148966 L11.5145402,11.5148966 L11.5145402,18.787069 Z" id="Fill-14" fill="#00A3E0"></path>
            </g>
        </g>
    </g>
</svg>