<svg width="46" height="44" viewBox="0 0 46 44" fill="none" xmlns="http://www.w3.org/2000/svg">
<path d="M23.0524 0.679688H22.9476C10.274 0.679688 0 10.269 0 22.0981V22.1958C0 34.0249 10.274 43.6142 22.9476 43.6142H23.0524C35.726 43.6142 46 34.0249 46 22.1958V22.0981C46 10.269 35.726 0.679688 23.0524 0.679688Z" fill="white"/>
<path d="M30.1179 9.41431H15.8842C11.9519 9.41431 8.75287 12.4002 8.75287 16.0704V28.2244C8.75287 31.8946 11.9519 34.8805 15.8842 34.8805H30.1179C34.0502 34.8805 37.2492 31.8946 37.2492 28.2244V16.0704C37.2492 12.4002 34.0502 9.41431 30.1179 9.41431ZM11.2686 16.0704C11.2686 13.6953 13.3395 11.7624 15.8842 11.7624H30.1179C32.6626 11.7624 34.7335 13.6953 34.7335 16.0704V28.2244C34.7335 30.5995 32.6626 32.5324 30.1179 32.5324H15.8842C13.3395 32.5324 11.2686 30.5995 11.2686 28.2244V16.0704Z" fill="#8D8078"/>
<path d="M23.0016 28.3372C26.6583 28.3372 29.6349 25.5604 29.6349 22.1459C29.6349 18.7313 26.6599 15.9546 23.0016 15.9546C19.3433 15.9546 16.3682 18.7313 16.3682 22.1459C16.3682 25.5604 19.3433 28.3372 23.0016 28.3372ZM23.0016 18.3042C25.2723 18.3042 27.1192 20.028 27.1192 22.1474C27.1192 24.2668 25.2723 25.9906 23.0016 25.9906C20.7308 25.9906 18.8839 24.2668 18.8839 22.1474C18.8839 20.028 20.7308 18.3042 23.0016 18.3042Z" fill="#8D8078"/>
<path d="M30.2484 16.955C31.2331 16.955 32.0357 16.2074 32.0357 15.2868C32.0357 14.3662 31.2347 13.6187 30.2484 13.6187C29.2621 13.6187 28.4611 14.3662 28.4611 15.2868C28.4611 16.2074 29.2621 16.955 30.2484 16.955Z" fill="#8D8078"/>
</svg>
