<svg width="36" height="36" viewBox="0 0 36 36" fill="none" xmlns="http://www.w3.org/2000/svg">
<path d="M17.8936 0H17.8123C7.97484 0 0 7.83006 0 17.4889V17.5688C0 27.2276 7.97484 35.0577 17.8123 35.0577H17.8936C27.7311 35.0577 35.7059 27.2276 35.7059 17.5688V17.4889C35.7059 7.83006 27.7311 0 17.8936 0Z" fill="#383D38"/>
<path d="M23.3779 7.13232H12.3295C9.27721 7.13232 6.79407 9.57038 6.79407 12.5673V22.4915C6.79407 25.4884 9.27721 27.9264 12.3295 27.9264H23.3779C26.4302 27.9264 28.9134 25.4884 28.9134 22.4915V12.5673C28.9134 9.57038 26.4302 7.13232 23.3779 7.13232ZM8.7468 12.5673C8.7468 10.6279 10.3543 9.04961 12.3295 9.04961H23.3779C25.3532 9.04961 26.9607 10.6279 26.9607 12.5673V22.4915C26.9607 24.4309 25.3532 26.0092 23.3779 26.0092H12.3295C10.3543 26.0092 8.7468 24.4309 8.7468 22.4915V12.5673Z" fill="white"/>
<path d="M17.8542 22.5835C20.6926 22.5835 23.0031 20.3162 23.0031 17.5281C23.0031 14.74 20.6938 12.4727 17.8542 12.4727C15.0145 12.4727 12.7053 14.74 12.7053 17.5281C12.7053 20.3162 15.0145 22.5835 17.8542 22.5835ZM17.8542 14.3912C19.6168 14.3912 21.0504 15.7987 21.0504 17.5293C21.0504 19.2599 19.6168 20.6675 17.8542 20.6675C16.0916 20.6675 14.658 19.2599 14.658 17.5293C14.658 15.7987 16.0916 14.3912 17.8542 14.3912Z" fill="white"/>
<path d="M23.4792 13.2897C24.2436 13.2897 24.8665 12.6792 24.8665 11.9276C24.8665 11.1759 24.2448 10.5654 23.4792 10.5654C22.7136 10.5654 22.0919 11.1759 22.0919 11.9276C22.0919 12.6792 22.7136 13.2897 23.4792 13.2897Z" fill="white"/>
</svg>
