<svg width="35" height="35" viewBox="0 0 35 35" fill="none" xmlns="http://www.w3.org/2000/svg">
<path d="M17.2451 0H17.1667C7.68578 0 0 7.78359 0 17.3851V17.4645C0 27.066 7.68578 34.8496 17.1667 34.8496H17.2451C26.726 34.8496 34.4118 27.066 34.4118 17.4645V17.3851C34.4118 7.78359 26.726 0 17.2451 0Z" fill="#383D38"/>
<path d="M6.51727 16.8309C6.5655 16.8065 6.61375 16.7833 6.66076 16.7613C7.47817 16.3779 8.30643 16.019 9.13348 15.66C9.17808 15.66 9.25281 15.6075 9.29501 15.5904C9.35891 15.5623 9.42281 15.5355 9.48671 15.5074C9.60968 15.4537 9.73266 15.4012 9.85443 15.3475C10.1004 15.2412 10.3451 15.135 10.591 15.0288L12.0631 14.3902C13.0445 13.9653 14.0271 13.5392 15.0084 13.1143C15.9898 12.6894 16.9724 12.2633 17.9537 11.8384C18.9351 11.4135 19.9177 10.9874 20.899 10.5625C21.8804 10.1377 22.863 9.71154 23.8444 9.28665C24.0626 9.19142 24.2989 9.04978 24.5328 9.00827C24.7293 8.97286 24.9209 8.90449 25.1187 8.86664C25.4936 8.79461 25.9071 8.76531 26.2664 8.92281C26.3906 8.97775 26.5051 9.05467 26.6004 9.15113C27.0561 9.60776 26.9922 10.3574 26.8957 10.9996C26.2242 15.4756 25.5527 19.9529 24.88 24.4289C24.7883 25.043 24.6629 25.717 24.1843 26.1053C23.7792 26.4337 23.2029 26.4703 22.7026 26.3311C22.2023 26.1907 21.761 25.8965 21.3282 25.6071C19.5331 24.4032 17.7367 23.1994 15.9416 21.9955C15.5148 21.7098 15.0398 21.3362 15.0446 20.8173C15.047 20.5048 15.2314 20.2264 15.4195 19.9785C16.9796 17.9176 19.2305 16.5013 20.9051 14.5355C21.1414 14.2584 21.327 13.7578 21.0027 13.5978C20.8098 13.5026 20.588 13.632 20.412 13.7553C18.1985 15.312 15.9862 16.87 13.7727 18.4267C13.0505 18.9346 12.2934 19.4572 11.4229 19.5817C10.6441 19.694 9.86046 19.4743 9.10696 19.2496C8.47522 19.0616 7.84466 18.8687 7.21654 18.6697C6.88258 18.5647 6.53777 18.4511 6.27977 18.213C6.02177 17.9749 5.8735 17.5745 6.02903 17.257C6.12668 17.058 6.31596 16.9322 6.51489 16.8297L6.51727 16.8309Z" fill="#FEFFFC"/>
</svg>
