<svg width="45" height="43" viewBox="0 0 45 43" fill="none" xmlns="http://www.w3.org/2000/svg">
<path d="M22.2169 0H22.1159C9.90162 0 0 9.53243 0 21.2913V21.3885C0 33.1473 9.90162 42.6797 22.1159 42.6797H22.2169C34.4312 42.6797 44.3328 33.1473 44.3328 21.3885V21.2913C44.3328 9.53243 34.4312 0 22.2169 0Z" fill="white"/>
<path d="M8.39642 20.6124C8.45855 20.5825 8.52071 20.5541 8.58128 20.5272C9.63435 20.0577 10.7014 19.6181 11.7669 19.1785C11.8244 19.1785 11.9206 19.1142 11.975 19.0932C12.0573 19.0588 12.1396 19.026 12.222 18.9916C12.3804 18.9258 12.5388 18.8615 12.6957 18.7957C13.0125 18.6656 13.3278 18.5355 13.6447 18.4054L15.5411 17.6234C16.8054 17.103 18.0713 16.5812 19.3356 16.0608C20.5999 15.5405 21.8657 15.0186 23.13 14.4982C24.3943 13.9779 25.6602 13.456 26.9245 12.9357C28.1888 12.4153 29.4546 11.8935 30.7189 11.3731C31.0001 11.2565 31.3045 11.083 31.6058 11.0322C31.859 10.9888 32.1059 10.9051 32.3606 10.8587C32.8437 10.7705 33.3764 10.7346 33.8393 10.9275C33.9993 10.9948 34.1468 11.089 34.2695 11.2071C34.8566 11.7664 34.7743 12.6845 34.6501 13.471C33.7849 18.9527 32.9198 24.4359 32.0531 29.9176C31.9351 30.6697 31.7735 31.4951 31.1569 31.9706C30.635 32.3728 29.8926 32.4177 29.248 32.2472C28.6035 32.0752 28.035 31.7149 27.4774 31.3605C25.1647 29.8862 22.8505 28.4118 20.5378 26.9375C19.9879 26.5876 19.376 26.13 19.3822 25.4945C19.3853 25.1117 19.6229 24.7708 19.8652 24.4673C21.875 21.9432 24.7749 20.2087 26.9322 17.8013C27.2367 17.4619 27.4759 16.8488 27.0581 16.6529C26.8096 16.5363 26.5237 16.6948 26.297 16.8458C23.4453 18.7523 20.5952 20.6603 17.7436 22.5668C16.8132 23.1888 15.8378 23.8288 14.7164 23.9813C13.713 24.1189 12.7035 23.8497 11.7327 23.5746C10.9188 23.3443 10.1065 23.1081 9.29728 22.8643C8.86705 22.7357 8.42283 22.5967 8.09045 22.3051C7.75807 22.0135 7.56705 21.5231 7.76741 21.1343C7.89322 20.8906 8.13707 20.7365 8.39335 20.6109L8.39642 20.6124Z" fill="#8D8078"/>
</svg>
