<svg width="22" height="22" viewBox="0 0 22 22" fill="none" xmlns="http://www.w3.org/2000/svg">
<g clip-path="url(#clip0_35_129)">
<g clip-path="url(#clip1_35_129)">
<mask id="mask0_35_129" style="mask-type:luminance" maskUnits="userSpaceOnUse" x="0" y="0" width="22" height="22">
<path d="M21.59 0.25H0V21.84H21.59V0.25Z" fill="white"/>
</mask>
<g mask="url(#mask0_35_129)">
<path d="M10.7977 0.25H10.7923C4.84021 0.25 0 5.09156 0 11.045C0 13.4064 0.761047 15.5951 2.0551 17.3722L0.709771 21.3826L4.8591 20.0561C6.56606 21.1869 8.60227 21.84 10.7977 21.84C16.7498 21.84 21.59 16.9971 21.59 11.045C21.59 5.09291 16.7498 0.25 10.7977 0.25Z" fill="#4CAF50"/>
<path d="M17.0791 15.4938C16.8186 16.2292 15.785 16.8391 14.9605 17.0172C14.3965 17.1373 13.6597 17.2331 11.1796 16.2049C8.00716 14.8906 5.9642 11.667 5.80498 11.4578C5.6525 11.2487 4.52307 9.75086 4.52307 8.20176C4.52307 6.65268 5.30976 5.89838 5.62686 5.57453C5.88729 5.3087 6.31774 5.18726 6.73065 5.18726C6.86424 5.18726 6.98433 5.194 7.09228 5.1994C7.40938 5.21289 7.56861 5.23179 7.77776 5.7324C8.03819 6.35986 8.6724 7.90895 8.74796 8.06817C8.82488 8.2274 8.90179 8.4433 8.79384 8.65245C8.69264 8.86835 8.60358 8.96416 8.44435 9.14767C8.28513 9.3312 8.134 9.47154 7.97477 9.66855C7.82904 9.83992 7.66442 10.0234 7.84793 10.3405C8.03145 10.6509 8.66565 11.6859 9.59946 12.5171C10.8045 13.5898 11.7814 13.9326 12.1309 14.0783C12.3913 14.1863 12.7017 14.1606 12.8919 13.9582C13.1335 13.6978 13.4317 13.266 13.7353 12.8409C13.9512 12.536 14.2238 12.4982 14.5098 12.6061C14.8013 12.7073 16.3436 13.4697 16.6607 13.6276C16.9778 13.7868 17.187 13.8624 17.2639 13.996C17.3395 14.1296 17.3395 14.757 17.0791 15.4938Z" fill="#FAFAFA"/>
</g>
</g>
</g>
<defs>
<clipPath id="clip0_35_129">
<rect width="21.59" height="21.59" fill="white" transform="translate(0 0.25)"/>
</clipPath>
<clipPath id="clip1_35_129">
<rect width="21.59" height="21.59" fill="white" transform="translate(0 0.25)"/>
</clipPath>
</defs>
</svg>
