<svg width="22" height="22" viewBox="0 0 22 22" fill="none" xmlns="http://www.w3.org/2000/svg">
<g clip-path="url(#clip0_35_73)">
<g clip-path="url(#clip1_35_73)">
<mask id="mask0_35_73" style="mask-type:luminance" maskUnits="userSpaceOnUse" x="0" y="0" width="22" height="22">
<path d="M21.9899 0.25H0.399902V21.84H21.9899V0.25Z" fill="white"/>
</mask>
<g mask="url(#mask0_35_73)">
<path d="M1.74928 1.71912C0.052667 3.48141 0.399906 5.35344 0.399906 11.0406C0.399906 15.7634 -0.424112 20.4979 3.88849 21.6125C5.23517 21.9588 17.1673 21.9588 18.5121 21.6107C20.3077 21.1474 21.7686 19.691 21.9683 17.1514C21.9962 16.797 21.9962 5.29047 21.9674 4.92883C21.7551 2.22379 20.09 0.664807 17.8959 0.349053C17.393 0.276187 17.2923 0.254597 14.7123 0.250099C5.56082 0.254597 3.55475 -0.152915 1.74928 1.71912Z" fill="url(#paint0_linear_35_73)"/>
<path d="M11.1931 3.07386C7.92668 3.07386 4.82492 2.78329 3.64017 5.82388C3.15079 7.0797 3.22186 8.71065 3.22186 11.0459C3.22186 13.0952 3.15619 15.0212 3.64017 16.2671C4.82222 19.3095 7.94917 19.018 11.1913 19.018C14.3191 19.018 17.5441 19.3437 18.7433 16.2671C19.2335 14.9987 19.1616 13.392 19.1616 11.0459C19.1616 7.93161 19.3334 5.92104 17.823 4.41154C16.2937 2.88224 14.2256 3.07386 11.1895 3.07386H11.1931ZM10.4788 4.51049C17.2922 4.4997 18.1594 3.74225 17.6809 14.2646C17.5108 17.9862 14.6772 17.5778 11.194 17.5778C4.84291 17.5778 4.6603 17.3961 4.6603 11.0423C4.6603 4.61484 5.16406 4.51409 10.4788 4.50869V4.51049ZM15.4481 5.83378C14.92 5.83378 14.4918 6.26198 14.4918 6.79003C14.4918 7.31809 14.92 7.74629 15.4481 7.74629C15.9762 7.74629 16.4044 7.31809 16.4044 6.79003C16.4044 6.26198 15.9762 5.83378 15.4481 5.83378ZM11.1931 6.95196C8.93242 6.95196 7.09997 8.78531 7.09997 11.0459C7.09997 13.3066 8.93242 15.139 11.1931 15.139C13.4537 15.139 15.2853 13.3066 15.2853 11.0459C15.2853 8.78531 13.4537 6.95196 11.1931 6.95196ZM11.1931 8.38859C14.7059 8.38859 14.7104 13.7033 11.1931 13.7033C7.6811 13.7033 7.6757 8.38859 11.1931 8.38859Z" fill="white"/>
</g>
</g>
</g>
<defs>
<linearGradient id="paint0_linear_35_73" x1="1.79068" y1="20.4611" x2="21.8563" y2="3.09456" gradientUnits="userSpaceOnUse">
<stop stop-color="#FFDD55"/>
<stop offset="0.5" stop-color="#FF543E"/>
<stop offset="1" stop-color="#C837AB"/>
</linearGradient>
<clipPath id="clip0_35_73">
<rect width="21.59" height="21.59" fill="white" transform="translate(0.399902 0.25)"/>
</clipPath>
<clipPath id="clip1_35_73">
<rect width="21.59" height="21.59" fill="white" transform="translate(0.399902 0.25)"/>
</clipPath>
</defs>
</svg>
